<svg width="689" height="594" viewBox="0 0 689 594" fill="none" xmlns="http://www.w3.org/2000/svg">
<path d="M55.493 150.235H41.1025C40.5965 150.235 40.1112 150.431 39.7534 150.78C39.3956 151.129 39.1946 151.602 39.1946 152.096V158.258C39.1946 158.752 39.3956 159.225 39.7534 159.574C40.1112 159.923 40.5965 160.119 41.1025 160.119H43.4872V169.353H53.1083V160.119H55.493C55.999 160.119 56.4843 159.923 56.8421 159.574C57.1999 159.225 57.4009 158.752 57.4009 158.258V152.096C57.4009 151.602 57.1999 151.129 56.8421 150.78C56.4843 150.431 55.999 150.235 55.493 150.235Z" fill="#E6E6E6"/>
<path d="M595.574 537.964L525.54 489.639C549.16 467.191 570.643 435.228 591.188 399.088L661.222 447.413C633.238 478.42 609.532 508.849 595.574 537.964Z" fill="#6C63FF"/>
<path d="M595.593 486.513C607.009 486.513 616.264 477.485 616.264 466.347C616.264 455.21 607.009 446.182 595.593 446.182C584.178 446.182 574.923 455.21 574.923 466.347C574.923 477.485 584.178 486.513 595.593 486.513Z" fill="white"/>
<path d="M257.735 317.443H250.048C249.777 317.443 249.518 317.548 249.327 317.735C249.136 317.921 249.029 318.174 249.029 318.438V321.73C249.029 321.86 249.055 321.99 249.106 322.11C249.157 322.231 249.232 322.341 249.327 322.433C249.422 322.525 249.534 322.599 249.658 322.648C249.781 322.698 249.914 322.724 250.048 322.724H251.322V327.657H256.461V322.724H257.735C258.006 322.724 258.265 322.619 258.456 322.433C258.647 322.246 258.755 321.994 258.755 321.73V318.438C258.755 318.174 258.647 317.921 258.456 317.735C258.265 317.548 258.006 317.443 257.735 317.443V317.443Z" fill="#E6E6E6"/>
<path d="M501.014 422.107H486.623C486.117 422.107 485.632 422.303 485.274 422.652C484.916 423.001 484.715 423.475 484.715 423.968V430.131C484.715 430.624 484.916 431.098 485.274 431.447C485.632 431.796 486.117 431.992 486.623 431.992H489.008V441.225H498.629V431.992H501.014C501.52 431.992 502.005 431.796 502.363 431.447C502.721 431.098 502.922 430.624 502.922 430.131V423.968C502.922 423.475 502.721 423.001 502.363 422.652C502.005 422.303 501.52 422.107 501.014 422.107V422.107Z" fill="#E6E6E6"/>
<path d="M515.427 478.504C506.614 465.923 502.109 450.943 502.556 435.711C502.564 435.359 502.447 435.016 502.225 434.739C502.003 434.462 501.69 434.268 501.338 434.191V431.529H486.14V434.154H485.931C485.726 434.155 485.523 434.194 485.334 434.271C485.145 434.348 484.973 434.46 484.829 434.601C484.684 434.743 484.569 434.911 484.491 435.095C484.413 435.28 484.373 435.478 484.373 435.678C484.373 435.715 484.375 435.752 484.378 435.789C485.575 452.072 481.532 466.674 472.248 479.596C471.714 480.339 471.441 481.23 471.47 482.137L473.132 532.288C473.172 533.407 473.653 534.467 474.475 535.248C475.297 536.029 476.397 536.47 477.544 536.479H511.92C513.081 536.469 514.192 536.019 515.016 535.222C515.841 534.426 516.314 533.346 516.335 532.215L516.976 483.522C516.995 481.734 516.454 479.984 515.427 478.504V478.504Z" fill="#6C63FF"/>
<path opacity="0.2" d="M498.014 424.115C498.014 425.18 497.58 426.201 496.808 426.955C496.036 427.708 494.989 428.131 493.898 428.131C492.806 428.131 491.759 427.708 490.987 426.955C490.215 426.201 489.781 425.18 489.781 424.115" fill="black"/>
<path d="M509.986 495.163H480.064C479.621 495.163 479.183 495.256 478.781 495.437C478.378 495.617 478.02 495.88 477.732 496.208C477.444 496.536 477.231 496.921 477.11 497.337C476.988 497.752 476.96 498.188 477.027 498.616L481.549 527.289H507.513L513.005 498.712C513.088 498.279 513.072 497.834 512.959 497.408C512.846 496.981 512.638 496.585 512.349 496.246C512.061 495.907 511.7 495.634 511.291 495.447C510.883 495.26 510.437 495.163 509.986 495.163V495.163Z" fill="white"/>
<path d="M459.955 537.885H374.173C380.171 506.252 378.791 468.053 374.173 426.974H459.955C455.46 468.054 454.117 506.252 459.955 537.885Z" fill="#6C63FF"/>
<path d="M417.581 499.57C428.997 499.57 438.251 490.542 438.251 479.405C438.251 468.267 428.997 459.239 417.581 459.239C406.165 459.239 396.911 468.267 396.911 479.405C396.911 490.542 406.165 499.57 417.581 499.57Z" fill="white"/>
<rect x="376.369" y="401.365" width="102.502" height="100" fill="#C4C4C4"/>
<path d="M637.494 545.21H364.97L307.26 279.059H258.009V267.117H317.182L374.892 533.267H637.494V545.21Z" fill="#3F3D56"/>
<path d="M404.906 593.833C419.394 593.833 431.138 582.376 431.138 568.242C431.138 554.108 419.394 542.651 404.906 542.651C390.419 542.651 378.675 554.108 378.675 568.242C378.675 582.376 390.419 593.833 404.906 593.833Z" fill="#3F3D56"/>
<path d="M600.77 593.833C615.257 593.833 627.001 582.376 627.001 568.242C627.001 554.108 615.257 542.651 600.77 542.651C586.282 542.651 574.538 554.108 574.538 568.242C574.538 582.376 586.282 593.833 600.77 593.833Z" fill="#3F3D56"/>
<path d="M632.525 539.586H367.374L320.591 314.034H676.428C678.244 314.035 680.038 314.418 681.687 315.16C683.336 315.901 684.801 316.982 685.982 318.328C687.162 319.674 688.029 321.254 688.524 322.958C689.018 324.663 689.129 326.451 688.847 328.201L644.942 529.226C644.489 532.119 642.986 534.756 640.707 536.657C638.428 538.559 635.524 539.598 632.525 539.586V539.586ZM370.254 536.174H632.525C634.689 536.183 636.785 535.433 638.43 534.06C640.075 532.688 641.159 530.784 641.486 528.697L685.391 327.671C685.594 326.408 685.515 325.117 685.158 323.887C684.801 322.657 684.175 321.517 683.324 320.545C682.472 319.573 681.415 318.793 680.224 318.258C679.034 317.723 677.739 317.446 676.428 317.447H324.837L370.254 536.174Z" fill="#3F3D56"/>
<path d="M418.92 538.864L388.283 316.018L391.733 315.462L422.371 538.308L418.92 538.864Z" fill="#3F3D56"/>
<path d="M589.278 537.153L585.825 536.607L615.568 315.467L619.021 316.013L589.278 537.153Z" fill="#3F3D56"/>
<path d="M508.112 315.74H504.614V538.586H508.112V315.74Z" fill="#3F3D56"/>
<path d="M338.457 375.454L338.449 378.866L677.007 379.666L677.016 376.253L338.457 375.454Z" fill="#3F3D56"/>
<path d="M653.125 480.86L355.693 482.843L355.717 486.255L653.149 484.272L653.125 480.86Z" fill="#3F3D56"/>
<path d="M263.255 281.619C273.879 281.619 282.492 277.036 282.492 271.382C282.492 265.729 273.879 261.146 263.255 261.146C252.631 261.146 244.019 265.729 244.019 271.382C244.019 277.036 252.631 281.619 263.255 281.619Z" fill="#3F3D56"/>
</svg>
